<svg id="Capa_1" enable-background="new 0 0 512 512" viewBox="0 0 512 512" xmlns="http://www.w3.org/2000/svg"><g><path d="m15 90c-8.284 0-15-6.716-15-15v-60c0-8.284 6.716-15 15-15h60c8.284 0 15 6.716 15 15s-6.716 15-15 15h-45v45c0 8.284-6.716 15-15 15z"/><path d="m75 512h-60c-8.284 0-15-6.716-15-15v-60c0-8.284 6.716-15 15-15s15 6.716 15 15v45h45c8.284 0 15 6.716 15 15s-6.716 15-15 15z"/><path d="m497 512h-60c-8.284 0-15-6.716-15-15s6.716-15 15-15h45v-45c0-8.284 6.716-15 15-15s15 6.716 15 15v60c0 8.284-6.716 15-15 15z"/><path d="m497 90c-8.284 0-15-6.716-15-15v-45h-45c-8.284 0-15-6.716-15-15s6.716-15 15-15h60c8.284 0 15 6.716 15 15v60c0 8.284-6.716 15-15 15z"/><path d="m416 90.959h-320c-8.284 0-15 6.716-15 15v105c0 8.284 6.716 15 15 15s15-6.716 15-15v-15c0-8.27 6.729-15 15-15h85v210.082h-15c-8.284 0-15 6.716-15 15s6.716 15 15 15h120c8.284 0 15-6.716 15-15s-6.716-15-15-15h-15v-210.082h85c8.271 0 15 6.73 15 15v15c0 8.284 6.716 15 15 15s15-6.716 15-15v-105c0-8.284-6.716-15-15-15z"/><path d="m416 90.959h-160v330.082h60c8.284 0 15-6.716 15-15s-6.716-15-15-15h-15v-210.082h85c8.271 0 15 6.73 15 15v15c0 8.284 6.716 15 15 15s15-6.716 15-15v-105c0-8.284-6.716-15-15-15z"/></g></svg>