<svg id="Capa_1" enable-background="new 0 0 512 512" viewBox="0 0 512 512" xmlns="http://www.w3.org/2000/svg"><g><path d="m219.419 512c-16.25 0-30.885-5.093-42.323-14.728-27.921-23.537-19.952-62.652-4.646-88.998 31.753-54.625 85.545-97.785 139.091-136.266-16.34-68.862-53.129-93.099-78.794-101.556 10.167 54.116-3.871 111.953-37.115 151.928-16.278 19.59-38.219 29.771-60.603 29.773-15.162.001-30.526-4.667-44.485-14.245-26.765-18.344-43.502-45.866-47.124-77.491-3.732-32.587 7.228-65.571 30.072-90.493 33.762-36.849 77.494-41.603 114.193-38.276-24.042-46.917-61.658-66.594-89.774-64.519-21.988 1.617-46.216 16.274-72.01 43.564-5.689 6.02-15.183 6.289-21.205.598-6.02-5.691-6.288-15.185-.598-21.205 31.539-33.366 61.504-50.662 91.612-52.876 29.85-2.203 58.864 9.458 83.882 33.709 18.046 17.493 33.256 40.756 43.386 66.195 2.498.518 5.031 1.066 7.586 1.642 51.912 11.676 89.486 52.334 107.328 115.41 6.473-4.171 12.948-8.238 19.312-12.235 14.411-9.051 29.301-18.404 43.195-28.381-33.059-38.746-82.785-112.561-50.17-176.938 11.784-23.267 33.299-36.612 59.03-36.612 32.642 0 66.269 21.61 79.959 51.384 24.523 53.322-2.966 119.887-45.119 163.722 17.729 15.058 36.056 23.763 54.635 25.925 8.229.958 14.123 8.405 13.165 16.634s-8.415 14.118-16.634 13.165c-25.747-2.997-50.496-14.952-73.724-35.583-.829.625-1.659 1.238-2.49 1.84-15 10.847-30.704 20.71-45.891 30.248-9.374 5.888-18.996 11.932-28.354 18.153 4.254 26.037 5.238 53.456 2.833 79.919-4.665 51.269-26.283 94.416-60.873 121.493-20.055 15.716-45.233 25.1-67.347 25.1zm97.749-207.007c-46.759 34.308-92.108 72.47-118.781 118.355-5.665 9.752-9.243 20.508-9.815 29.507-.604 9.486 1.966 16.511 7.855 21.476 6.04 5.087 13.777 7.669 22.992 7.669 15.164 0 34.338-7.347 48.848-18.717 28.012-21.929 45.587-57.651 49.494-100.593 1.704-18.748 1.474-38.598-.593-57.697zm-148.239-144.148c-31.81 0-55.175 9.543-73.32 29.348-16.969 18.513-25.127 42.864-22.385 66.812 2.618 22.857 14.794 42.803 34.286 56.162 21.63 14.841 47.771 10.834 65.052-9.963 27.975-33.638 39.735-85.01 29.967-130.879-.618-2.904-1.356-5.865-2.208-8.861-11.303-1.74-21.735-2.619-31.392-2.619zm240.33-130.845c-10.061 0-23.825 3.499-32.267 20.167-10.286 20.303-9.782 44.989 1.497 73.373 11.039 27.777 30.115 53.371 44.48 70.243 33.912-35.616 57.537-89.542 38.992-129.866-8.891-19.336-31.547-33.917-52.702-33.917z"/></g></svg>